#!OML:ASF E:\CV Data\Top Level 1\Subject 1\Session 1\player.ASF
:FULLY-SPECIFIED
:DEGREES
841
root 1.84132 17.6734 -20.136 10.4071 -1.22781 -7.05957
lowerback 9.48175 2.49925 9.18972
upperback 1.86278 4.457 6.43048
thorax -3.18863 2.13593 1.05372
lowerneck -8.56331 -14.0901 -17.0698
upperneck 32.3679 -19.9868 8.81843
head 15.5671 -9.60845 2.96243
rclavicle -5.08889e-014 -5.24792e-014
rhumerus -3.57628 -29.7941 -78.7796
rradius 14.8702
rwrist 22.1876
rhand -11.885 -8.22072
rfingers 7.12502
rthumb 14.1678 -37.7176
lclavicle -5.08889e-014 -5.24792e-014
lhumerus -22.3179 -22.7509 98.6921
lradius 63.5818
lwrist 0.285745
lhand -14.5919 7.52945
lfingers 7.12502
lthumb 11.5583 37.1907
rfemur -8.78525 0.795041 27.4279
rtibia 25.0945
rfoot -21.4156 -8.54498
rtoes -1.81341
lfemur -31.4466 3.91807 -12.8037
ltibia 32.8495
lfoot -6.08991 3.33122
ltoes -0.768462
842
root 1.82057 17.669 -20.2229 10.6365 -1.18519 -6.91977
lowerback 9.78339 2.5881 9.23041
upperback 1.94108 4.61531 6.52322
thorax -3.27163 2.21165 1.09791
lowerneck -8.57184 -14.1629 -16.9635
upperneck 32.2181 -20.0332 8.67693
head 15.4679 -9.62846 2.87871
rclavicle -6.75868e-014 -7.15625e-014
rhumerus -3.26836 -38.4372 -77.9744
rradius 13.5936
rwrist 23.4014
rhand -12.748 -7.60472
rfingers 7.12502
rthumb 13.3361 -37.158
lclavicle -6.75868e-014 -7.15625e-014
lhumerus -22.5082 -21.7936 98.1173
lradius 62.7593
lwrist -0.646715
lhand -14.5445 7.28705
lfingers 7.12502
lthumb 11.604 36.9458
rfemur -9.42544 0.748045 27.4802
rtibia 25.2295
rfoot -21.5807 -9.01076
rtoes -1.22042
lfemur -32.0133 3.87276 -12.8811
ltibia 32.7997
lfoot -5.85047 3.40986
ltoes -0.769976
843
root 1.80066 17.6662 -20.3078 10.8447 -1.14516 -6.73856
lowerback 10.1319 2.65832 9.24767
upperback 2.00182 4.75438 6.58775
thorax -3.39967 2.27598 1.12351
lowerneck -8.58546 -14.2277 -16.8601
upperneck 32.1119 -20.0751 8.53958
head 15.3915 -9.64626 2.79845
rclavicle 2.38542e-014 3.49861e-014
rhumerus -3.36124 -46.0396 -76.9917
rradius 12.9435
rwrist 24.5866
rhand -13.9777 -6.64683
rfingers 7.12502
rthumb 12.1506 -36.274
lclavicle 2.38542e-014 3.49861e-014
lhumerus -22.7788 -20.775 97.5135
lradius 61.9309
lwrist -1.41671
lhand -14.5367 7.1793
lfingers 7.12502
lthumb 11.6116 36.8376
rfemur -10.0733 0.736967 27.4725
rtibia 25.4414
rfoot -21.7188 -9.46308
rtoes -0.795172
lfemur -32.5028 3.84634 -13.0097
ltibia 32.6861
lfoot -5.68039 3.53028
ltoes -0.932153
844
root 1.78184 17.6649 -20.3906 11.0354 -1.09921 -6.52902
lowerback 10.4916 2.70767 9.26042
upperback 2.06558 4.86576 6.62969
thorax -3.53018 2.32642 1.12972
lowerneck -8.6113 -14.2872 -16.7691
upperneck 32.0226 -20.1156 8.42435
head 15.3309 -9.66202 2.72871
rclavicle -3.73715e-014 -3.33958e-014
rhumerus -3.88786 -51.6306 -75.7861
rradius 12.8575
rwrist 25.0005
rhand -15.5057 -5.45385
rfingers 7.12502
rthumb 10.677 -35.1626
lclavicle -3.73715e-014 -3.33958e-014
lhumerus -23.0819 -19.7063 96.8709
lradius 61.0869
lwrist -1.96659
lhand -14.6004 7.19211
lfingers 7.12502
lthumb 11.5501 36.8539
rfemur -10.7334 0.759582 27.4103
rtibia 25.7267
rfoot -21.8205 -9.86657
rtoes -0.536364
lfemur -32.9252 3.84735 -13.1792
ltibia 32.5208
lfoot -5.60024 3.67784
ltoes -1.24968
845
root 1.76451 17.6651 -20.4709 11.2144 -1.04379 -6.3043
lowerback 10.8272 2.73458 9.28797
upperback 2.14498 4.94299 6.65285
thorax -3.62898 2.36108 1.11349
lowerneck -8.64727 -14.3401 -16.6954
upperneck 31.933 -20.153 8.3403
head 15.2792 -9.6748 2.67411
rclavicle -3.97569e-015 3.18055e-014
rhumerus -4.77892 -54.8644 -74.4086
rradius 13.2126
rwrist 24.3556
rhand -17.2792 -4.27539
rfingers 7.12502
rthumb 8.96591 -34.0649
lclavicle -3.97569e-015 3.18055e-014
lhumerus -23.3918 -18.5908 96.1872
lradius 60.226
lwrist -2.23391
lhand -14.7106 7.3494
lfingers 7.12502
lthumb 11.4439 37.0171
rfemur -11.4086 0.794944 27.3001
rtibia 26.081
rfoot -21.8889 -10.1753
rtoes -0.38681
lfemur -33.2917 3.86556 -13.3738
ltibia 32.3195
lfoot -5.62692 3.85312
ltoes -1.70304
846
root 1.74888 17.6666 -20.5484 11.3864 -0.963216 -6.07825
lowerback 11.1192 2.735 9.34951
upperback 2.25933 4.97809 6.66173
thorax -3.66372 2.37738 1.07224
lowerneck -8.71274 -14.3897 -16.6256
upperneck 31.8045 -20.1908 8.30006
head 15.2227 -9.68287 2.63559
rclavicle 6.99722e-014 8.74653e-014
rhumerus -5.8096 -56.0652 -73.0507
rradius 13.895
rwrist 22.7821
rhand -19.1284 -3.14213
rfingers 7.12502
rthumb 7.18125 -33.0003
lclavicle 6.99722e-014 8.74653e-014
lhumerus -23.6499 -17.434 95.4528
lradius 59.3239
lwrist -2.24231
lhand -14.836 7.6598
lfingers 7.12502
lthumb 11.3229 37.3342
rfemur -12.1021 0.801566 27.1581
rtibia 26.4991
rfoot -21.9313 -10.3574
rtoes -0.301846
lfemur -33.6191 3.90237 -13.581
ltibia 32.0979
lfoot -5.77278 4.02453
ltoes -2.29715
847
root 1.73504 17.6691 -20.6229 11.5528 -0.852388 -5.85897
lowerback 11.3791 2.70343 9.44079
upperback 2.38164 4.969 6.66792
thorax -3.671 2.37277 1.01976
lowerneck -8.75716 -14.4223 -16.5796
upperneck 31.6463 -20.21 8.29373
head 15.1531 -9.68382 2.61998
rclavicle -3.18055e-014 -1.59028e-014
rhumerus -6.85594 -55.7632 -71.81
rradius 14.8342
rwrist 20.4983
rhand -20.9252 -2.19659
rfingers 7.12502
rthumb 5.44656 -32.1066
lclavicle -3.18055e-014 -1.59028e-014
lhumerus -23.9087 -16.1988 94.6933
lradius 58.3647
lwrist -2.07064
lhand -14.914 8.13608
lfingers 7.12502
lthumb 11.2477 37.8145
rfemur -12.8132 0.744863 26.9981
rtibia 26.974
rfoot -21.9572 -10.4075
rtoes -0.231959
lfemur -33.9167 3.95332 -13.7915
ltibia 31.8688
lfoot -6.03647 4.17928
ltoes -3.04659
848
root 1.72297 17.6727 -20.6941 11.723 -0.710223 -5.64464
lowerback 11.6066 2.63991 9.54806
upperback 2.50523 4.91536 6.67593
thorax -3.65959 2.34697 0.968389
lowerneck -8.80165 -14.4374 -16.5473
upperneck 31.4752 -20.2043 8.30203
head 15.0779 -9.67493 2.61774
rclavicle -3.26007e-014 7.95139e-015
rhumerus -7.80375 -54.4826 -70.7645
rradius 16.001
rwrist 17.6049
rhand -22.4617 -1.54213
rfingers 7.12502
rthumb 3.96292 -31.485
lclavicle -3.26007e-014 7.95139e-015
lhumerus -24.1722 -14.8744 93.9163
lradius 57.3256
lwrist -1.78134
lhand -14.9658 8.72548
lfingers 7.12502
lthumb 11.1977 38.4067
rfemur -13.5455 0.59854 26.827
rtibia 27.4958
rfoot -21.9765 -10.3357
rtoes -0.137933
lfemur -34.1961 4.00588 -14.0036
ltibia 31.6391
lfoot -6.40963 4.31057
ltoes -3.91436
849
root 1.71236 17.6771 -20.7616 11.9008 -0.540677 -5.43135
lowerback 11.7951 2.54848 9.65483
upperback 2.62616 4.82029 6.68784
thorax -3.63182 2.30162 0.92924
lowerneck -8.83189 -14.4319 -16.5216
upperneck 31.287 -20.1696 8.31766
head 14.9891 -9.65514 2.62708
rclavicle 1.35174e-014 3.81667e-014
rhumerus -8.59856 -52.6271 -69.9324
rradius 17.3746
rwrist 14.0387
rhand -23.6491 -1.1916
rfingers 7.12502
rthumb 2.81627 -31.1528
lclavicle 1.35174e-014 3.81667e-014
lhumerus -24.4433 -13.4509 93.1247
lradius 56.1858
lwrist -1.42894
lhand -15.1063 9.27101
lfingers 7.12502
lthumb 11.0622 38.9595
rfemur -14.2978 0.355419 26.6516
rtibia 28.0517
rfoot -21.9902 -10.1802
rtoes -0.0411495
lfemur -34.4634 4.06801 -14.2233
ltibia 31.4095
lfoot -6.86949 4.40251
ltoes -4.86394
850
root 1.70283 17.6822 -20.8258 12.0874 -0.349034 -5.20721
lowerback 11.9441 2.43214 9.73548
upperback 2.73743 4.68554 6.70552
thorax -3.59733 2.23744 0.917794
lowerneck -8.84317 -14.4018 -16.4991
upperneck 31.0969 -20.0969 8.32177
head 14.8885 -9.62241 2.64228
rclavicle -4.37326e-014 -4.13472e-014
rhumerus -9.26651 -50.5188 -69.2547
rradius 18.9441
rwrist 9.85829
rhand -24.4043 -1.1623
rfingers 7.12502
rthumb 2.08689 -31.1318
lclavicle -4.37326e-014 -4.13472e-014
lhumerus -24.7377 -11.9215 92.3254
lradius 54.9345
lwrist -1.05344
lhand -15.3274 9.71766
lfingers 7.12502
lthumb 10.849 39.4174
rfemur -15.0649 0.0380796 26.469
rtibia 28.6298
rfoot -21.9979 -9.99268
rtoes 0.0569495
lfemur -34.7192 4.14129 -14.4632
ltibia 31.176
lfoot -7.376 4.46651
ltoes -5.67813
851
root 1.69409 17.6879 -20.8863 12.279 -0.14284 -4.95802
lowerback 12.0782 2.29844 9.76797
upperback 2.82839 4.52299 6.72417
thorax -3.58172 2.15921 0.937843
lowerneck -8.85045 -14.3517 -16.4651
upperneck 30.9304 -19.9904 8.29433
head 14.7869 -9.57793 2.65114
rclavicle 6.36111e-015 3.65764e-014
rhumerus -9.85626 -48.3809 -68.6623
rradius 20.6908
rwrist 5.14855
rhand -24.7232 -1.33587
rfingers 7.12502
rthumb 1.77894 -31.3082
lclavicle 6.36111e-015 3.65764e-014
lhumerus -25.0697 -10.3064 91.5206
lradius 53.5726
lwrist -0.651802
lhand -15.6365 10.0911
lfingers 7.12502
lthumb 10.5508 39.8063
rfemur -15.831 -0.334045 26.2689
rtibia 29.2108
rfoot -21.998 -9.81095
rtoes 0.143397
lfemur -34.9541 4.22594 -14.7392
ltibia 30.9366
lfoot -7.887 4.52218
ltoes -6.18886
